<?xml version="1.0" encoding="UTF-8"?>
<svg version="1.1" xmlns="http://www.w3.org/2000/svg" width="48" height="48">
<path d="M0 0 C2 1 2 1 3 3 C4.22620737 10.62973474 0.93994758 15.62103725 -3 22 C-6.71097537 20.76300821 -6.95812034 19.83913266 -8.6875 16.4375 C-10.98089246 11.60128267 -11.74433536 8.30338946 -11 3 C-8.88635164 -1.22729673 -4.14812414 -0.60493477 0 0 Z " fill="#FFFFFF" transform="translate(43,24)"/>
<path d="M0 0 C2 1 2 1 3 3 C4.22620737 10.62973474 0.93994758 15.62103725 -3 22 C-6.71097537 20.76300821 -6.95812034 19.83913266 -8.6875 16.4375 C-10.98089246 11.60128267 -11.74433536 8.30338946 -11 3 C-8.88635164 -1.22729673 -4.14812414 -0.60493477 0 0 Z " fill="#FFFFFF" transform="translate(13,4)"/>
<path d="M0 0 C1.32 0 2.64 0 4 0 C4 1.32 4 2.64 4 4 C2.68 4 1.36 4 0 4 C0 2.68 0 1.36 0 0 Z " fill="#FFFFFF" transform="translate(24,30)"/>
<path d="M0 0 C1.32 0 2.64 0 4 0 C4 1.32 4 2.64 4 4 C2.68 4 1.36 4 0 4 C0 2.68 0 1.36 0 0 Z " fill="#FFFFFF" transform="translate(16,30)"/>
<path d="M0 0 C1.32 0 2.64 0 4 0 C4 1.32 4 2.64 4 4 C2.68 4 1.36 4 0 4 C0 2.68 0 1.36 0 0 Z " fill="#FFFFFF" transform="translate(8,30)"/>
</svg>
